<svg xmlns="http://www.w3.org/2000/svg" viewBox="0 0 400 240" width="100%" height="100%">
  <defs>
    <filter id="shadow3" x="-5%" y="-5%" width="110%" height="115%">
      <feDropShadow dx="0" dy="6" stdDeviation="10" flood-color="#000000" flood-opacity="0.12"/>
    </filter>
  </defs>

  <!-- Nền giao diện Cài đặt hồ sơ -->
  <rect width="400" height="240" rx="16" fill="#F2F2F7"/>

  <!-- Hộp giao diện modal cài đặt -->
  <g filter="url(#shadow3)">
    <rect x="20" y="16" width="360" height="208" rx="14" fill="#FFFFFF"/>

    <!-- Header điều hướng -->
    <text x="40" y="44" font-family="-apple-system, BlinkMacSystemFont, 'Segoe UI', Roboto, sans-serif" font-size="14" fill="#007AFF">
      Hủy
    </text>
    <text x="200" y="44" text-anchor="middle" font-family="-apple-system, BlinkMacSystemFont, 'Segoe UI', Roboto, sans-serif" font-size="14" font-weight="700" fill="#000000">
      Cài đặt cấu hình
    </text>

    <!-- Nút Cài đặt góc phải (Được đóng khung nổi bật) -->
    <rect x="300" y="26" width="68" height="28" rx="14" fill="#007AFF"/>
    <text x="334" y="45" text-anchor="middle" font-family="-apple-system, BlinkMacSystemFont, 'Segoe UI', Roboto, sans-serif" font-size="13" font-weight="700" fill="#FFFFFF">
      Cài đặt
    </text>

    <line x1="20" y1="62" x2="380" y2="62" stroke="#E5E5EA" stroke-width="1"/>

    <!-- Thông tin Profile -->
    <rect x="36" y="80" width="48" height="48" rx="12" fill="#5856D6"/>
    <!-- Icon Profile Shield -->
    <path d="M60 90 L74 95 L74 107 C74 116 60 122 60 122 C60 122 46 116 46 107 L46 95 Z" fill="#FFFFFF"/>

    <text x="96" y="98" font-family="-apple-system, BlinkMacSystemFont, 'Segoe UI', Roboto, sans-serif" font-size="15" font-weight="700" fill="#000000">
      Lấy UDID thiết bị
    </text>
    <text x="96" y="115" font-family="-apple-system, BlinkMacSystemFont, 'Segoe UI', Roboto, sans-serif" font-size="12" fill="#8E8E93">
      Tổ chức: Softdreams
    </text>

    <!-- Khối nhắc Passcode -->
    <rect x="36" y="144" width="328" height="60" rx="10" fill="#F8F8FA" stroke="#E5E5EA"/>
    <circle cx="56" cy="174" r="10" fill="#34C759" fill-opacity="0.15"/>
    <path d="M52 174 L55 177 L60 171" fill="none" stroke="#34C759" stroke-width="2" stroke-linecap="round"/>
    <text x="74" y="168" font-family="-apple-system, BlinkMacSystemFont, 'Segoe UI', Roboto, sans-serif" font-size="12" font-weight="600" fill="#1C1C1E">
      Nhập mật mã mở khóa máy
    </text>
    <text x="74" y="184" font-family="-apple-system, BlinkMacSystemFont, 'Segoe UI', Roboto, sans-serif" font-size="11" fill="#8E8E93">
      Bấm "Cài đặt" lần nữa để xác nhận gửi thông tin UDID
    </text>
  </g>
</svg>